<svg width="42" height="14" viewBox="0 0 42 14" fill="none" xmlns="http://www.w3.org/2000/svg">
<g clip-path="url(#clip0_1018_1243)">
<rect width="42" height="14" fill="white"/>
<path d="M6.40039 11H2.52148C2.49023 11 2.47461 10.9805 2.47461 10.9414L2.48633 2.69727C2.48633 2.66602 2.50195 2.65039 2.5332 2.65039H6.38867C6.41992 2.65039 6.43555 2.66992 6.43555 2.70898V4.05078C6.43555 4.08203 6.41992 4.09766 6.38867 4.09766H3.92773V5.97266H6.38867C6.41992 5.97266 6.43555 5.98828 6.43555 6.01953L6.44727 7.37891C6.44727 7.41016 6.43164 7.42578 6.40039 7.42578H3.92773V9.52344H6.40039C6.43164 9.52344 6.44727 9.54297 6.44727 9.58203V10.9531C6.44727 10.9844 6.43164 11 6.40039 11ZM10.3145 11H8.86133C8.82617 11 8.80664 10.9805 8.80273 10.9414L7.14453 2.69727C7.13672 2.66602 7.15234 2.65039 7.19141 2.65039H8.55078C8.58203 2.65039 8.60156 2.66602 8.60938 2.69727L9.59375 8.19336L10.5547 2.69727C10.5625 2.66602 10.582 2.65039 10.6133 2.65039H11.9551C11.998 2.65039 12.0137 2.66602 12.002 2.69727L10.373 10.9414C10.3691 10.9805 10.3496 11 10.3145 11ZM16.6309 11H12.752C12.7207 11 12.7051 10.9805 12.7051 10.9414L12.7168 2.69727C12.7168 2.66602 12.7324 2.65039 12.7637 2.65039H16.6191C16.6504 2.65039 16.666 2.66992 16.666 2.70898V4.05078C16.666 4.08203 16.6504 4.09766 16.6191 4.09766H14.1582V5.97266H16.6191C16.6504 5.97266 16.666 5.98828 16.666 6.01953L16.6777 7.37891C16.6777 7.41016 16.6621 7.42578 16.6309 7.42578H14.1582V9.52344H16.6309C16.6621 9.52344 16.6777 9.54297 16.6777 9.58203V10.9531C16.6777 10.9844 16.6621 11 16.6309 11ZM19.0508 11H17.8496C17.7871 11 17.7559 10.9727 17.7559 10.918L17.7441 2.74414C17.7441 2.68164 17.7754 2.65039 17.8379 2.65039H18.9219L20.9492 7.37891L20.8906 2.74414C20.8906 2.68164 20.9258 2.65039 20.9961 2.65039H22.1855C22.2324 2.65039 22.2559 2.68164 22.2559 2.74414L22.2676 10.9297C22.2676 10.9766 22.248 11 22.209 11H21.1543L19.0742 6.58203L19.1621 10.9062C19.1621 10.9688 19.125 11 19.0508 11ZM25.8711 11H24.5176C24.4824 11 24.4648 10.9805 24.4648 10.9414V4.09766H22.9062C22.8672 4.09766 22.8477 4.07812 22.8477 4.03906L22.8594 2.69727C22.8594 2.66602 22.875 2.65039 22.9062 2.65039H27.4648C27.5078 2.65039 27.5293 2.66602 27.5293 2.69727V4.03906C27.5293 4.07812 27.5137 4.09766 27.4824 4.09766H25.9062L25.918 10.9414C25.918 10.9805 25.9023 11 25.8711 11ZM29.5332 11H28.1738C28.1348 11 28.1152 10.9805 28.1152 10.9414L28.127 2.69727C28.127 2.66602 28.1426 2.65039 28.1738 2.65039H29.5215C29.5527 2.65039 29.5684 2.66602 29.5684 2.69727L29.5801 10.9414C29.5801 10.9805 29.5645 11 29.5332 11ZM32.041 11H30.6934C30.6543 11 30.6348 10.9805 30.6348 10.9414L30.6582 2.69727C30.6582 2.66602 30.6738 2.65039 30.7051 2.65039H34.5488C34.5879 2.65039 34.6074 2.66602 34.6074 2.69727V4.05078C34.6074 4.08203 34.5918 4.09766 34.5605 4.09766H32.0996V5.96094H34.5605C34.5918 5.96094 34.6074 5.98047 34.6074 6.01953L34.6191 7.37891C34.6191 7.41016 34.5996 7.42578 34.5605 7.42578H32.0996V10.9414C32.0996 10.9805 32.0801 11 32.041 11ZM38.1875 11H36.8105C36.7832 11 36.7695 10.9844 36.7695 10.9531L36.7812 7.54297L35.1758 2.69727C35.168 2.66602 35.1797 2.65039 35.2109 2.65039H36.5469C36.5859 2.65039 36.6094 2.66602 36.6172 2.69727L37.502 5.92578L38.4043 2.69727C38.4121 2.66602 38.4316 2.65039 38.4629 2.65039H39.8105C39.8418 2.65039 39.8535 2.66602 39.8457 2.69727L38.2227 7.49609L38.2344 10.9531C38.2344 10.9844 38.2188 11 38.1875 11Z" fill="black"/>
</g>
<defs>
<clipPath id="clip0_1018_1243">
<rect width="42" height="14" fill="white"/>
</clipPath>
</defs>
</svg>
